<?xml version="1.0" encoding="utf-8"?>
<!-- Generator: Adobe Illustrator 19.0.0, SVG Export Plug-In . SVG Version: 6.00 Build 0)  -->
<svg version="1.1" id="Layer_1" xmlns="http://www.w3.org/2000/svg" xmlns:xlink="http://www.w3.org/1999/xlink" x="0px" y="0px"
	 viewBox="0 0 893 330" style="enable-background:new 0 0 893 330;" xml:space="preserve">
<style type="text/css">
	.st0{fill:#F45D5D;}
</style>
<g id="XMLID_2_">
	<path id="XMLID_3_" class="st0" d="M168.9,159.1c-14.1,0-25,4.7-32.9,14.1c-7.9,9.4-11.8,22.5-11.8,39.3c0,16.6,4.3,29.9,12.8,40.1
		c8.5,10.2,19.5,15.3,33,15.3c14.1,0,24.9-4.7,32.7-14.1c7.7-9.4,11.6-22.7,11.6-39.9c0-17.1-4-30.5-12.1-40.2
		C194,163.9,182.9,159.1,168.9,159.1z"/>
	<path id="XMLID_22_" class="st0" d="M0,0v330h893V0H0z M42.4,299.8c-14.4,0-26.1-11.7-26.1-26.1s11.7-26.1,26.1-26.1
		c14.4,0,26.1,11.7,26.1,26.1S56.8,299.8,42.4,299.8z M233.2,277.3C220,293,201.9,300.8,179,300.8c-11.4,0-21.7-2.3-30.6-6.9
		c-8.9-4.6-17.4-11.5-23.4-20.9V294H88V28h37v130.2c5-10.3,11.4-18.2,21-23.8c9.5-5.6,21-8.4,34.3-8.4c21.6,0,39.1,8,52.6,23.9
		c13.4,15.9,20.2,36.9,20.2,62.8C253,240,246.4,261.5,233.2,277.3z M311,294h-38V28h38V294z M380,294h-35V131h35V294z M379,78.1
		c-4.5,4.5-9.9,6.8-16.5,6.8c-6.4,0-11.9-2.3-16.5-6.9c-4.6-4.6-6.9-10.1-6.9-16.5c0-6.3,2.3-11.7,6.9-16.3
		c4.6-4.6,10.1-6.9,16.5-6.9c6.6,0,12.1,2.2,16.5,6.6c4.4,4.4,6.6,9.9,6.6,16.5C385.7,68,383.5,73.6,379,78.1z M571,294h-39v-83.3
		c0-21.4-2.3-35.6-7.5-42.6c-5.2-7-14.3-10.5-27.5-10.5c-8.7,0-16.3,1.6-23.1,4.8c-6.8,3.2-12.1,7.7-16,13.5
		c-2.7,3.9-4.4,8.9-5.5,15c-1.1,6.1-1.4,15.9-1.4,29.2V294h-38V131h34v27.2c9-11.2,16.8-19.4,26.9-24.5c10.1-5.1,22.6-7.7,37-7.7
		c12.1,0,22.6,1.9,31.1,5.7c8.5,3.8,15.3,9.5,20.1,17.1c2.9,4.5,5.4,9.7,6.6,15.6c1.3,5.9,2.3,16.3,2.3,31.2V294z M708.9,294
		L635,210.3V294h-36V28h36v171l68.9-68h45.9l-73.7,71.9l80.7,91.1H708.9z M853.4,164.9c-3.2-2.3-6.7-4-10.4-5.1
		c-3.7-1.1-7.9-1.6-12.4-1.6c-12.3,0-21.2,4.9-26.6,14.8c-5.4,9.9-8,26.5-8,49.8V294h-38V131h38v26.5c5-10.7,9.3-18.7,15.8-23.8
		c6.6-5.1,14.7-7.7,24.4-7.7c5.3,0,10.4,0.6,15.5,1.9c5.1,1.3,10.1,3.1,15,5.5L853.4,164.9z"/>
</g>
</svg>
