<?xml version="1.0" encoding="iso-8859-1"?>
<!-- Generator: Adobe Illustrator 22.1.0, SVG Export Plug-In . SVG Version: 6.00 Build 0)  -->
<svg xmlns="http://www.w3.org/2000/svg" xmlns:xlink="http://www.w3.org/1999/xlink" version="1.1" x="0px" y="0px" viewBox="0 0 24 24" style="enable-background:new 0 0 24 24;" xml:space="preserve" width="480px" height="480px">
<style type="text/css">
	.st0{fill:#FFFFFF;}
</style>
<g id="Filled">
	<path class="st0" d="M19,3H5C3.895,3,3,3.895,3,5v14c0,1.105,0.895,2,2,2h7.621v-6.961h-2.343v-2.725h2.343V9.309   c0-2.324,1.421-3.591,3.495-3.591c0.699-0.002,1.397,0.034,2.092,0.105v2.43h-1.428c-1.13,0-1.35,0.534-1.35,1.322v1.735h2.7   l-0.351,2.725h-2.365V21H19c1.105,0,2-0.895,2-2V5C21,3.895,20.105,3,19,3z"/>
</g>
</svg>
