<?xml version="1.0" encoding="iso-8859-1"?>
<!-- Generator: Adobe Illustrator 22.1.0, SVG Export Plug-In . SVG Version: 6.00 Build 0)  -->
<svg xmlns="http://www.w3.org/2000/svg" xmlns:xlink="http://www.w3.org/1999/xlink" version="1.1" x="0px" y="0px" viewBox="0 0 24 24" style="enable-background:new 0 0 24 24;" xml:space="preserve" width="480px" height="480px">
	<style type="text/css">
	.st0{fill:#FFFFFF;}
</style>
<g id="Filled">
	<path class="st0" d="M16,3H8C5.239,3,3,5.239,3,8v8c0,2.761,2.239,5,5,5h8c2.761,0,5-2.239,5-5V8C21,5.239,18.761,3,16,3z M12,17   c-2.761,0-5-2.239-5-5s2.239-5,5-5s5,2.239,5,5S14.761,17,12,17z M18,7c-0.552,0-1-0.448-1-1s0.448-1,1-1s1,0.448,1,1   S18.552,7,18,7z"/>
	<circle class="st0" cx="12" cy="12" r="3"/>
</g>
</svg>
