<?xml version="1.0" encoding="utf-8"?>
<!-- Generator: Adobe Illustrator 19.0.0, SVG Export Plug-In . SVG Version: 6.00 Build 0)  -->
<svg version="1.1" id="Layer_1" xmlns="http://www.w3.org/2000/svg" xmlns:xlink="http://www.w3.org/1999/xlink" x="0px" y="0px"
	 viewBox="0 0 763 302" style="enable-background:new 0 0 763 302;" xml:space="preserve">
<style type="text/css">
	.st0{fill:#F45D5D;}
</style>
<g id="XMLID_2_">
	<path id="XMLID_3_" class="st0" d="M205.6,145.5c-8.9,0-15.8,3-20.8,8.9c-5,5.9-7.5,14.2-7.5,24.8c0,10.5,2.7,18.9,8.1,25.3
		c5.4,6.4,12.3,9.7,20.9,9.7c8.9,0,15.7-3,20.7-8.9c4.9-5.9,7.3-14.3,7.3-25.2c0-10.8-2.5-19.3-7.6-25.4
		C221.4,148.5,214.4,145.5,205.6,145.5z"/>
	<path id="XMLID_17_" class="st0" d="M0,0v302h763V0H0z M125.6,234.4c-9.1,0-16.5-7.4-16.5-16.5c0-9.1,7.4-16.5,16.5-16.5
		s16.5,7.4,16.5,16.5C142.1,227,134.7,234.4,125.6,234.4z M246.2,220.2c-8.3,9.9-19.8,14.9-34.2,14.9c-7.2,0-13.7-1.5-19.3-4.4
		c-5.6-2.9-10.7-7.3-14.7-13.2V231h-24V62h24v82.9c3-6.5,7.1-11.5,13.2-15c6-3.5,13.2-5.3,21.6-5.3c13.7,0,24.7,5.1,33.3,15.1
		c8.5,10.1,12.8,23.3,12.8,39.7C258.7,196.6,254.6,210.2,246.2,220.2z M296,231h-24V62h24V231z M340,231h-23V127h23V231z
		 M338.4,94.3c-2.8,2.8-6.3,4.3-10.4,4.3c-4,0-7.5-1.5-10.4-4.4c-2.9-2.9-4.4-6.4-4.4-10.4c0-4,1.5-7.4,4.4-10.3
		c2.9-2.9,6.4-4.4,10.4-4.4c4.2,0,7.6,1.4,10.4,4.2c2.8,2.8,4.2,6.3,4.2,10.4C342.6,87.9,341.2,91.4,338.4,94.3z M459,231h-24v-52.9
		c0-13.5-1.4-22.5-4.7-26.9c-3.3-4.4-9-6.6-17.3-6.6c-5.5,0-10.3,1-14.6,3c-4.3,2-7.6,4.9-10.1,8.5c-1.7,2.5-2.7,5.6-3.4,9.5
		c-0.7,3.9-0.8,10.1-0.8,18.5v47h-24V127h21v17.9c7-7.1,10.8-12.3,17.1-15.5c6.4-3.2,14.4-4.9,23.5-4.9c7.6,0,14.2,1.2,19.6,3.6
		s9.6,6,12.6,10.8c1.8,2.8,3.2,6.1,4,9.9c0.8,3.7,1.1,10.3,1.1,19.7V231z M546.9,231L500,177.8V231h-23V62h23v108.7l43.7-43.7h29
		l-46.6,45.9l51,58.1H546.9z M638.2,149.1c-2-1.5-4.2-2.5-6.6-3.2s-5-1-7.8-1c-7.8,0-13.4,3.1-16.8,9.4c-3.4,6.3-5,16.8-5,31.5V231
		h-24V127h24v17.5c3-6.8,5.8-11.8,10-15c4.2-3.2,9.3-4.9,15.4-4.9c3.4,0,6.6,0.4,9.8,1.2s6.4,2,9.5,3.5L638.2,149.1z"/>
</g>
</svg>
